<svg width="846" height="572" xmlns="http://www.w3.org/2000/svg" xmlns:xlink="http://www.w3.org/1999/xlink" overflow="hidden"><defs><clipPath id="clip0"><rect x="212" y="74" width="846" height="572"/></clipPath></defs><g clip-path="url(#clip0)" transform="translate(-212 -74)"><path d="M449.5 237.5 542.556 76.5001 543.444 76.5001 636.5 237.5Z" stroke="#FFFFFF" stroke-width="1.33333" stroke-miterlimit="8" fill="#ED7D31" fill-rule="evenodd"/><text font-family="Calibri,Calibri_MSFontService,sans-serif" font-weight="700" font-size="24" transform="translate(478.631 193)">Visualization</text><path d="M365.5 382.5 449.309 237.5 635.691 237.5 719.5 382.5Z" stroke="#FFFFFF" stroke-width="1.33333" stroke-miterlimit="8" fill="#A5A5A5" fill-rule="evenodd"/><text font-family="Calibri,Calibri_MSFontService,sans-serif" font-weight="700" font-size="27" transform="translate(494.572 317)">Learning</text><path d="M281.5 528.5 365.886 382.5 720.114 382.5 804.5 528.5Z" stroke="#FFFFFF" stroke-width="1.33333" stroke-miterlimit="8" fill="#FFC000" fill-rule="evenodd"/><text font-family="Calibri,Calibri_MSFontService,sans-serif" font-weight="700" font-size="27" transform="translate(491.595 462)">Compute</text><path d="M213.5 644.5 280.547 528.5 804.453 528.5 871.5 644.5Z" stroke="#FFFFFF" stroke-width="1.33333" stroke-miterlimit="8" fill="#5B9BD5" fill-rule="evenodd"/><text font-family="Calibri,Calibri_MSFontService,sans-serif" font-weight="700" font-size="27" transform="translate(496.751 593)">Concept</text><path d="M611.5 569.418C611.5 559.522 619.522 551.5 629.418 551.5L1038.58 551.5C1048.48 551.5 1056.5 559.522 1056.5 569.418L1056.5 607.582C1056.5 617.478 1048.48 625.5 1038.58 625.5L629.418 625.5C619.522 625.5 611.5 617.478 611.5 607.582Z" stroke="#4472C4" stroke-width="3" stroke-miterlimit="8" fill="#FFFFFF" fill-rule="evenodd"/><text font-family="Calibri,Calibri_MSFontService,sans-serif" font-weight="700" font-size="24" transform="translate(638.689 595)">Probability, Statistics<tspan x="206.867" y="0">, Algebra</tspan></text><path d="M611.5 292.176C611.5 282.414 619.414 274.5 629.176 274.5L1038.82 274.5C1048.59 274.5 1056.5 282.414 1056.5 292.176L1056.5 329.824C1056.5 339.586 1048.59 347.5 1038.82 347.5L629.176 347.5C619.414 347.5 611.5 339.586 611.5 329.824Z" stroke="#4472C4" stroke-width="3" stroke-miterlimit="8" fill="#FFFFFF" fill-rule="evenodd"/><text font-family="Calibri,Calibri_MSFontService,sans-serif" font-weight="700" font-size="24" transform="translate(638.689 304)">Pattern finding, ML, Algorithms, Neural <tspan x="0" y="29">Networks</tspan></text><path d="M611.5 437.418C611.5 427.522 619.522 419.5 629.418 419.5L1038.58 419.5C1048.48 419.5 1056.5 427.522 1056.5 437.418L1056.5 475.582C1056.5 485.478 1048.48 493.5 1038.58 493.5L629.418 493.5C619.522 493.5 611.5 485.478 611.5 475.582Z" stroke="#4472C4" stroke-width="3" stroke-miterlimit="8" fill="#FFFFFF" fill-rule="evenodd"/><text font-family="Calibri,Calibri_MSFontService,sans-serif" font-weight="700" font-size="24" transform="translate(638.689 464)">Programming, Databases</text></g></svg>